<svg xmlns="http://www.w3.org/2000/svg" xmlns:xlink="http://www.w3.org/1999/xlink" version="1.1" x="0px" y="0px" viewBox="0 0 100 125" style="enable-background:new 0 0 100 100;" xml:space="preserve"><path d="M50.6,9.1H34.7c-0.5,0-0.9,0.5-0.9,1v79.9c0,0.6,0.4,1,0.9,1h15.9c0.5,0,0.9-0.5,0.9-1V10.1  C51.5,9.6,51.1,9.1,50.6,9.1z M36.1,20.4h13v4h-13V20.4z M49.1,80.4h-13v-2.9l0,0l0,0v-1h13V80.4z"/><path d="M74.4,8.9H58.5c-0.5,0-0.9,0.5-0.9,1v79.9c0,0.6,0.4,1,0.9,1h15.9c0.5,0,0.9-0.5,0.9-1V9.9  C75.3,9.4,74.9,8.9,74.4,8.9z M60,20.2h13v4H60V20.2z M72.9,80.2H60v-2.9l0,0l0,0v-1h13V80.2z"/><path d="M97.3,8.9H81.4c-0.5,0-0.9,0.5-0.9,1v79.9c0,0.6,0.4,1,0.9,1h15.9c0.5,0,0.9-0.5,0.9-1V9.9  C98.3,9.4,97.8,8.9,97.3,8.9z M82.9,20.2h13v4h-13V20.2z M95.9,80.2h-13v-2.9l0,0l0,0v-1h13V80.2z"/><path d="M27.2,11L11.4,9.3c-0.5-0.1-1,0.3-1,0.9L1.8,88.1c-0.1,0.5,0.3,1,0.8,1.1l15.8,1.7c0.5,0.1,1-0.3,1-0.9  L28,12.1C28,11.6,27.7,11.1,27.2,11z M18.2,79.4L5.3,77.9l0.5-4l12.9,1.5L18.2,79.4z M24.4,22.6L24.4,22.6l-0.2,2l-12.9-1.5l0.5-4  l12.9,1.5L24.4,22.6L24.4,22.6z"/><text x="0" y="115" fill="#000000" font-size="5px" font-weight="bold" font-family="'Helvetica Neue', Helvetica, Arial-Unicode, Arial, Sans-serif">Created by Aneeque Ahmed</text><text x="0" y="120" fill="#000000" font-size="5px" font-weight="bold" font-family="'Helvetica Neue', Helvetica, Arial-Unicode, Arial, Sans-serif">from the Noun Project</text></svg>