<svg xmlns="http://www.w3.org/2000/svg" xmlns:xlink="http://www.w3.org/1999/xlink" version="1.1" x="0px" y="0px" viewBox="0 0 41 55.75" style="enable-background:new 0 0 41 44.6;" xml:space="preserve"><title>Asset 3</title><g><g><path d="M9.1,11.4C9.1,5.1,14.2,0,20.5,0s11.4,5.1,11.4,11.4s-5.1,11.4-11.4,11.4c0,0,0,0,0,0C14.2,22.7,9.1,17.6,9.1,11.4z     M7.3,23.6C3.7,27.2,0,32.2,0,37.3v7.2h41v-7.2c0-5.2-3.8-10.1-7.4-13.8c-3.6,3.1-8.3,4.9-13,4.9C15.6,28.5,11,26.7,7.3,23.6z"/></g></g><text x="0" y="59.6" fill="#000000" font-size="5px" font-weight="bold" font-family="'Helvetica Neue', Helvetica, Arial-Unicode, Arial, Sans-serif">Created by Joshua McDonald</text><text x="0" y="64.6" fill="#000000" font-size="5px" font-weight="bold" font-family="'Helvetica Neue', Helvetica, Arial-Unicode, Arial, Sans-serif">from the Noun Project</text></svg>